<mxfile host="app.diagrams.net" modified="2023-06-30T02:32:27.324Z" agent="Mozilla/5.0 (Windows NT 10.0; Win64; x64) AppleWebKit/537.36 (KHTML, like Gecko) Chrome/114.0.0.0 Safari/537.36" etag="y7xoa7nNervaWDNGBw3E" version="21.5.2" type="github">
  <diagram name="第1頁" id="IAwCshYT_SxdI75w-6Fg">
    <mxGraphModel dx="1050" dy="549" grid="1" gridSize="10" guides="1" tooltips="1" connect="1" arrows="1" fold="1" page="1" pageScale="1" pageWidth="827" pageHeight="1169" math="0" shadow="0">
      <root>
        <mxCell id="0" />
        <mxCell id="1" parent="0" />
        <mxCell id="JkwZ3yz-5N_XbCVilNxT-3" value="" style="verticalLabelPosition=bottom;verticalAlign=top;html=1;shape=mxgraph.basic.rect;fillColor2=none;strokeWidth=1;size=20;indent=5;" vertex="1" parent="1">
          <mxGeometry x="291" y="70" width="246" height="320" as="geometry" />
        </mxCell>
        <mxCell id="JkwZ3yz-5N_XbCVilNxT-4" value="Actor" style="shape=umlActor;verticalLabelPosition=bottom;verticalAlign=top;html=1;outlineConnect=0;" vertex="1" parent="1">
          <mxGeometry x="190" y="180" width="40" height="80" as="geometry" />
        </mxCell>
        <mxCell id="JkwZ3yz-5N_XbCVilNxT-7" value="取用登記" style="ellipse;whiteSpace=wrap;html=1;" vertex="1" parent="1">
          <mxGeometry x="354" y="130" width="120" height="50" as="geometry" />
        </mxCell>
        <mxCell id="JkwZ3yz-5N_XbCVilNxT-8" value="編輯" style="ellipse;whiteSpace=wrap;html=1;" vertex="1" parent="1">
          <mxGeometry x="354" y="210" width="120" height="50" as="geometry" />
        </mxCell>
        <mxCell id="JkwZ3yz-5N_XbCVilNxT-9" value="刪除" style="ellipse;whiteSpace=wrap;html=1;" vertex="1" parent="1">
          <mxGeometry x="354" y="280" width="120" height="50" as="geometry" />
        </mxCell>
        <mxCell id="JkwZ3yz-5N_XbCVilNxT-11" value="" style="endArrow=classic;html=1;rounded=0;entryX=0;entryY=0.5;entryDx=0;entryDy=0;" edge="1" parent="1" target="JkwZ3yz-5N_XbCVilNxT-7">
          <mxGeometry width="50" height="50" relative="1" as="geometry">
            <mxPoint x="240" y="230" as="sourcePoint" />
            <mxPoint x="280" y="170" as="targetPoint" />
          </mxGeometry>
        </mxCell>
        <mxCell id="JkwZ3yz-5N_XbCVilNxT-12" value="" style="endArrow=classic;html=1;rounded=0;entryX=0;entryY=0.5;entryDx=0;entryDy=0;" edge="1" parent="1" target="JkwZ3yz-5N_XbCVilNxT-8">
          <mxGeometry width="50" height="50" relative="1" as="geometry">
            <mxPoint x="240" y="230" as="sourcePoint" />
            <mxPoint x="364" y="165" as="targetPoint" />
          </mxGeometry>
        </mxCell>
        <mxCell id="JkwZ3yz-5N_XbCVilNxT-13" value="" style="endArrow=classic;html=1;rounded=0;entryX=0;entryY=0.5;entryDx=0;entryDy=0;" edge="1" parent="1" target="JkwZ3yz-5N_XbCVilNxT-9">
          <mxGeometry width="50" height="50" relative="1" as="geometry">
            <mxPoint x="240" y="230" as="sourcePoint" />
            <mxPoint x="374" y="175" as="targetPoint" />
          </mxGeometry>
        </mxCell>
      </root>
    </mxGraphModel>
  </diagram>
</mxfile>
